<svg width="120" height="120" viewBox="0 0 120 120" fill="none" xmlns="http://www.w3.org/2000/svg">
<circle cx="64" cy="66" r="50" fill="#FF8787"/>
<path d="M70.3459 116.064C66.9929 116.679 63.5353 117 60 117C28.5198 117 3 91.4802 3 60C3 28.5198 28.5198 3 60 3C91.4802 3 117 28.5198 117 60C117 84.9521 100.965 106.167 78.629 113.887L70.3459 116.064Z" stroke="black" stroke-width="6"/>
<path d="M79.36 66V42.192H85.408V66H79.36ZM82.384 39.408C81.296 39.408 80.368 39.056 79.6 38.352C78.864 37.648 78.496 36.72 78.496 35.568C78.496 34.416 78.864 33.488 79.6 32.784C80.368 32.08 81.296 31.728 82.384 31.728C83.504 31.728 84.432 32.08 85.168 32.784C85.904 33.488 86.272 34.416 86.272 35.568C86.272 36.72 85.904 37.648 85.168 38.352C84.432 39.056 83.504 39.408 82.384 39.408Z" fill="white"/>
<path d="M71.36 97V73.192H77.312V75.88H78.176C78.528 74.92 79.104 74.216 79.904 73.768C80.736 73.32 81.696 73.096 82.784 73.096H85.664V78.472H82.688C81.152 78.472 79.888 78.888 78.896 79.72C77.904 80.52 77.408 81.768 77.408 83.464V97H71.36Z" fill="white"/>
<path d="M40.36 66V42.192H46.312V44.784H47.176C47.592 43.984 48.28 43.296 49.24 42.72C50.2 42.112 51.464 41.808 53.032 41.808C54.728 41.808 56.088 42.144 57.112 42.816C58.136 43.456 58.92 44.304 59.464 45.36H60.328C60.872 44.336 61.64 43.488 62.632 42.816C63.624 42.144 65.032 41.808 66.856 41.808C68.328 41.808 69.656 42.128 70.84 42.768C72.056 43.376 73.016 44.32 73.72 45.6C74.456 46.848 74.824 48.432 74.824 50.352V66H68.776V50.784C68.776 49.472 68.44 48.496 67.768 47.856C67.096 47.184 66.152 46.848 64.936 46.848C63.56 46.848 62.488 47.296 61.72 48.192C60.984 49.056 60.616 50.304 60.616 51.936V66H54.568V50.784C54.568 49.472 54.232 48.496 53.56 47.856C52.888 47.184 51.944 46.848 50.728 46.848C49.352 46.848 48.28 47.296 47.512 48.192C46.776 49.056 46.408 50.304 46.408 51.936V66H40.36Z" fill="white"/>
<path d="M53.688 97.672C51.32 97.672 49.192 97.192 47.304 96.232C45.416 95.272 43.928 93.88 42.84 92.056C41.752 90.232 41.208 88.04 41.208 85.48V84.712C41.208 82.152 41.752 79.96 42.84 78.136C43.928 76.312 45.416 74.92 47.304 73.96C49.192 73 51.32 72.52 53.688 72.52C56.056 72.52 58.184 73 60.072 73.96C61.96 74.92 63.448 76.312 64.536 78.136C65.624 79.96 66.168 82.152 66.168 84.712V85.48C66.168 88.04 65.624 90.232 64.536 92.056C63.448 93.88 61.96 95.272 60.072 96.232C58.184 97.192 56.056 97.672 53.688 97.672ZM53.688 92.296C55.544 92.296 57.08 91.704 58.296 90.52C59.512 89.304 60.12 87.576 60.12 85.336V84.856C60.12 82.616 59.512 80.904 58.296 79.72C57.112 78.504 55.576 77.896 53.688 77.896C51.832 77.896 50.296 78.504 49.08 79.72C47.864 80.904 47.256 82.616 47.256 84.856V85.336C47.256 87.576 47.864 89.304 49.08 90.52C50.296 91.704 51.832 92.296 53.688 92.296Z" fill="white"/>
</svg>
